<?xml version="1.0" encoding="UTF-8"?>
<svg width="90px" height="90px" viewBox="0 0 90 90" version="1.1" xmlns="http://www.w3.org/2000/svg" xmlns:xlink="http://www.w3.org/1999/xlink">
    <!-- Generator: Sketch 45.2 (43514) - http://www.bohemiancoding.com/sketch -->
    <title>Artboard</title>
    <desc>Created with Sketch.</desc>
    <defs></defs>
    <g id="Page-1" stroke="none" stroke-width="1" fill="none" fill-rule="evenodd">
        <g id="Artboard">
            <g id="noun_955105_cc" transform="translate(-1.000000, -1.000000)">
                <rect id="Rectangle-path" x="1" y="0.999" width="90" height="90"></rect>
                <g id="Group" fill-rule="nonzero" fill="#FFFFFF">
                    <path d="M88.702,77.562 L67.235,56.096 C76.198,41.978 74.206,23.432 62.282,11.506 C55.501,4.725 46.483,0.99 36.895,0.99 C27.305,0.99 18.289,4.724 11.508,11.506 C4.727,18.288 0.992,27.303 0.992,36.892 C0.992,46.483 4.726,55.499 11.508,62.28 C18.288,69.061 27.303,72.796 36.893,72.796 C43.75,72.796 50.361,70.877 56.098,67.237 L77.565,88.702 C79.051,90.19 81.03,91.009 83.133,91.01 L83.133,91.01 C85.238,91.01 87.217,90.191 88.703,88.702 C90.191,87.215 91.01,85.235 91.01,83.132 C91.01,81.029 90.19,79.049 88.702,77.562 Z M54.741,54.738 C49.981,59.498 43.642,62.12 36.894,62.12 C30.145,62.12 23.807,59.498 19.047,54.738 C14.288,49.979 11.667,43.641 11.667,36.891 C11.667,30.143 14.288,23.805 19.047,19.045 C23.807,14.285 30.145,11.664 36.894,11.664 C43.642,11.664 49.981,14.285 54.741,19.045 C64.581,28.887 64.581,44.897 54.741,54.738 Z" id="Shape"></path>
                    <path d="M42.715,21.481 C36.664,19.205 29.807,20.682 25.246,25.244 C21.609,28.881 19.903,33.904 20.566,39.024 C20.629,39.513 21.046,39.869 21.527,39.869 C21.568,39.869 21.61,39.867 21.652,39.861 C22.183,39.793 22.558,39.306 22.49,38.774 C21.905,34.255 23.409,29.824 26.618,26.614 C30.641,22.592 36.692,21.289 42.032,23.297 C42.534,23.485 43.093,23.233 43.281,22.731 C43.469,22.229 43.215,21.67 42.715,21.481 Z" id="Shape"></path>
                </g>
            </g>
        </g>
    </g>
</svg>